<svg width="270" height="48" viewBox="0 0 270 48" fill="white" xmlns="http://www.w3.org/2000/svg">
<path d="M80.8437 7.30957C77.2427 7.30957 74.4339 8.2425 73.4256 8.60133C73.4256 8.60133 73.4256 8.60133 73.3535 8.60133C73.0655 8.67309 71.9131 9.17547 71.9131 9.17547L72.2733 10.2519L72.5613 11.1849C72.5613 11.2567 72.7053 11.5437 72.7774 11.759C72.9214 12.1896 73.0654 12.6202 73.0654 12.6202L74.0017 12.2613L74.5059 12.1178C75.5862 11.759 77.8908 11.1131 80.5557 11.1131C81.7079 11.1131 82.4281 11.3284 82.9324 11.8307C83.7246 12.6919 83.9406 14.2707 83.9406 16.4955C83.2204 16.2802 81.3479 15.8496 79.4753 15.8496C73.9297 15.8496 70.4007 18.792 70.4007 23.4566C70.4007 27.8343 73.2815 30.9202 77.4588 30.9202C80.6277 30.9202 82.8603 29.5566 84.2287 28.2649V28.3366V30.346H85.6691H87.9742V26.112V16.7825C88.1178 10.6825 86.9655 7.30957 80.8437 7.30957ZM83.9406 24.3178C83.0763 25.5378 80.8437 27.2601 78.1069 27.2601C76.0183 27.2601 74.5059 25.7531 74.5059 23.6002C74.5059 21.0166 76.4504 19.4378 79.5473 19.4378C81.6359 19.4378 83.1484 19.7966 83.9406 20.2273V24.3178Z" fill="white"/>
<path d="M66.5118 9.39077L66.9439 8.38604L65.8636 7.88368C64.9274 7.38133 63.4149 7.30957 62.4066 7.30957C58.6615 7.30957 56.5729 9.17547 55.8527 9.96485V9.89311V7.81193H54.4122H52.1075V12.046V30.4178H56.4289V14.4143C56.7169 14.0555 58.5174 11.4719 62.2625 11.4719C62.9107 11.4719 63.6309 11.6154 64.0631 11.759L65.2874 12.2613L65.6476 11.4719C65.6476 11.4719 65.6476 11.4001 65.7196 11.4001L65.8636 11.1848C66.0796 10.4672 66.5118 9.46251 66.5118 9.39077Z" fill="white"/>
<path d="M45.194 27.404L43.8256 25.1075L42.6732 25.6099C42.6732 25.6099 40.1524 26.8299 38.712 26.8299C37.1276 26.8299 37.1276 26.6863 37.1276 24.3898V11.6875H44.6178V7.88397H37.1996V3.21927V0.563965H32.8784V1.92751V7.81223H28.9892V11.6157H32.8784V24.6769C32.8784 27.7628 33.3105 30.9923 38.2079 30.9923C40.8727 30.9923 43.8976 29.5569 44.6898 29.0545C44.7618 29.0545 44.7618 28.9828 44.8338 28.9828L45.7701 28.4805L45.194 27.5475C45.266 27.404 45.266 27.404 45.194 27.404Z" fill="white"/>
<path d="M176.632 27.4753C176.632 27.4753 176.632 27.4035 176.561 27.4035L175.192 25.1071L174.039 25.6094C174.039 25.6094 171.518 26.8294 170.078 26.8294C168.494 26.8294 168.494 26.6858 168.494 24.3894V11.687H176.128V7.88348H168.638V3.21878V0.563477H164.316V1.92702V7.81174H160.427V11.6153H164.316V24.6764C164.316 27.7623 164.749 30.9918 169.646 30.9918C172.311 30.9918 175.336 29.5564 176.128 29.054C176.2 29.054 176.2 28.9823 176.272 28.9823L177.209 28.48L176.632 27.4753Z" fill="white"/>
<path d="M97.2651 38.3835C97.2651 41.1106 96.3288 42.9765 94.7444 43.7659C94.24 43.9812 93.5918 44.1248 92.8719 44.1248C91.5756 44.1248 89.6304 43.12 88.9823 42.5459C88.9823 42.5459 88.9823 42.5459 88.9104 42.5459C88.8386 42.4741 88.6941 42.4024 88.6223 42.3306C88.4068 42.187 88.1187 42.0436 87.8305 41.7565L87.4701 42.3306L86.2458 44.1965L85.7416 45.0576C86.3178 45.4882 86.8219 45.8471 87.3261 46.206C87.686 46.493 88.1905 46.78 88.7668 47.0671C89.8467 47.5694 91.2157 48 92.8719 48C93.0155 48 93.2319 48 93.3755 48C98.5614 47.7847 101.587 44.1965 101.587 38.3835V7.88354H97.2651V38.3835Z" fill="white"/>
<path d="M128.45 26.7575C128.45 26.6858 128.379 26.6858 128.379 26.614C128.235 26.3987 128.09 26.1834 127.947 25.9681C127.802 25.8246 127.73 25.6093 127.586 25.4658L126.938 24.5328L125.786 25.2505L125.642 25.3222C123.842 26.3987 122.113 26.9728 120.24 26.9728C116.639 26.9728 113.398 23.8869 113.038 20.227H128.739H130.108L130.035 17.4999C130.035 11.5434 125.713 7.23755 119.736 7.23755C113.326 7.23755 108.645 12.1893 108.645 19.0787C108.645 25.9681 113.326 30.9199 119.736 30.9199C123.409 30.9199 126.434 29.5564 127.947 28.3364L129.027 27.547L128.45 26.7575ZM119.952 11.1846C122.977 11.1846 125.57 13.6245 125.858 16.7104H113.255C113.83 13.4811 116.567 11.1846 119.952 11.1846Z" fill="white"/>
<path d="M153.802 23.1693L152.794 24.2457C152.721 24.3175 152.577 24.461 152.505 24.5328C151.353 25.6811 150.057 26.9728 147.176 26.9728C143.215 26.9728 140.118 23.5999 140.118 19.2222C140.118 14.9164 143.286 11.6152 147.248 11.6152C149.12 11.6152 150.921 12.4763 152.217 13.8398L153.154 14.9164L154.306 13.9117L155.026 13.2658L155.17 13.1222L156.251 12.1893L155.243 10.9693C153.225 8.52928 150.561 7.23755 147.32 7.23755C140.982 7.23755 135.652 12.6917 135.652 19.1505C135.652 25.7528 140.766 30.9199 147.248 30.9199C150.705 30.9199 153.874 29.1975 155.818 26.3987L156.682 25.2505L153.802 23.1693Z" fill="white"/>
<path d="M185.922 8.24132C185.922 7.8825 186.21 7.59546 186.498 7.59546H193.915C200.326 7.59546 205.512 12.7625 205.512 19.1496C205.512 25.5366 200.254 30.7037 193.915 30.7037H186.498C186.138 30.7037 185.922 30.4166 185.922 30.0578V8.24132ZM193.34 28.479C198.741 28.479 202.703 24.6037 202.703 19.1496C202.703 13.7672 198.741 9.89194 193.34 9.89194H188.37V28.479H193.34Z" fill="white"/>
<path d="M208.896 29.9157L218.979 7.66864C219.05 7.45334 219.267 7.30981 219.555 7.30981H219.915C220.203 7.30981 220.347 7.45334 220.491 7.66864L230.502 29.9157C230.718 30.3463 230.43 30.7769 229.926 30.7769H228.629C228.341 30.7769 228.125 30.5616 228.053 30.418L225.604 24.9639H213.865L211.417 30.418C211.345 30.5616 211.128 30.7769 210.84 30.7769H209.544C208.968 30.7769 208.68 30.3463 208.896 29.9157ZM224.596 22.8827C222.94 19.2945 221.356 15.6345 219.77 12.0463H219.483L214.657 22.8827H224.596Z" fill="white"/>
<path d="M237.56 9.89315H231.798C231.438 9.89315 231.15 9.60611 231.15 9.24725V8.31435C231.15 7.95553 231.438 7.66846 231.798 7.66846H245.842C246.202 7.66846 246.491 7.95553 246.491 8.31435V9.24725C246.491 9.60611 246.202 9.89315 245.842 9.89315H240.081V30.1308C240.081 30.4896 239.793 30.7767 239.432 30.7767H238.209C237.848 30.7767 237.56 30.4896 237.56 30.1308V9.89315Z" fill="white"/>
<path d="M247.211 29.9157L257.294 7.66864C257.366 7.45334 257.582 7.30981 257.87 7.30981H258.23C258.519 7.30981 258.662 7.45334 258.807 7.66864L268.818 29.9157C269.033 30.3463 268.745 30.7769 268.241 30.7769H266.872C266.585 30.7769 266.369 30.5616 266.297 30.418L263.848 24.9639H252.108L249.659 30.418C249.588 30.5616 249.371 30.7769 249.084 30.7769H247.787C247.283 30.7769 247.067 30.3463 247.211 29.9157ZM262.984 22.8827C261.327 19.2945 259.743 15.6345 258.159 12.0463H257.87L253.045 22.8827H262.984Z" fill="white"/>
<path d="M21.787 7.95508H0.108643V12.261H17.8258V30.561H21.787V7.95508Z" fill="white"/>
</svg>
